<mxfile host="app.diagrams.net" modified="2024-03-12T12:48:54.449Z" agent="Mozilla/5.0 (Macintosh; Intel Mac OS X 10_15_7) AppleWebKit/537.36 (KHTML, like Gecko) Chrome/122.0.0.0 Safari/537.36" version="24.0.5" etag="2hRdqsdevr99cdwgZOyL" type="github">
  <diagram name="Page-1" id="eyLinjUvU1Ip7hieTrRp">
    <mxGraphModel>
      <root>
        <mxCell id="0" />
        <mxCell id="1" parent="0" />
      </root>
    </mxGraphModel>
  </diagram>
</mxfile>
